<?xml version="1.0" standalone="no"?>
<!DOCTYPE svg PUBLIC "-//W3C//DTD SVG 20010904//EN"
 "http://www.w3.org/TR/2001/REC-SVG-20010904/DTD/svg10.dtd">
<svg version="1.0" xmlns="http://www.w3.org/2000/svg"
 width="16.000000pt" height="16.000000pt" viewBox="0 0 16.000000 16.000000"
 preserveAspectRatio="xMidYMid meet">

<g transform="translate(0.000000,16.000000) scale(0.100000,-0.100000)"
fill="#000000" stroke="none">
<path d="M46 144 c-19 -18 -20 -30 -5 -40 8 -4 4 -13 -12 -24 -20 -16 -21 -20
-9 -36 18 -21 77 -47 90 -39 6 4 10 13 10 21 0 8 3 13 8 13 25 -4 33 3 30 29
-2 16 -8 26 -16 24 -8 -1 -11 2 -7 8 7 11 -8 28 -43 48 -27 15 -27 15 -46 -4z
m91 -79 c0 -8 -4 -12 -9 -9 -5 3 -6 10 -3 15 9 13 12 11 12 -6z"/>
</g>
</svg>
